<svg width="270" height="241" viewBox="0 0 270 241" fill="none" xmlns="http://www.w3.org/2000/svg">
<path d="M141.701 234.402C205.049 234.402 256.402 183.049 256.402 119.701C256.402 56.3534 205.049 5 141.701 5C78.3534 5 27 56.3534 27 119.701C27 183.049 78.3534 234.402 141.701 234.402Z" fill="url(#paint0_linear_402_3)"/>
<path d="M270 204C270 210.627 216.946 216 151.5 216C86.0543 216 33 210.627 33 204C33 197.373 86.0543 192 151.5 192C216.946 192 270 197.373 270 204Z" fill="#C4C1FE"/>
<path d="M246.031 101.24H100.405C96.3297 101.24 93.0259 104.544 93.0259 108.619V197.172C93.0259 201.247 96.3297 204.551 100.405 204.551H246.031C250.106 204.551 253.41 201.247 253.41 197.172V108.619C253.41 104.544 250.106 101.24 246.031 101.24Z" fill="url(#paint1_linear_402_3)"/>
<path d="M188.794 111.172V197.172C188.794 199.131 188.016 201.01 186.63 202.395C185.245 203.781 183.366 204.559 181.406 204.559H56.0556C54.0962 204.559 52.2172 203.781 50.8317 202.395C49.4463 201.01 48.668 199.131 48.668 197.172V104.556C48.6666 103.515 48.8853 102.485 49.3097 101.535C49.7341 100.584 50.3546 99.734 51.1305 99.0399L106.463 49.8386C107.794 48.6572 109.507 47.9959 111.287 47.9763C113.066 47.9567 114.793 48.5801 116.149 49.7319L188.474 111.172H188.794Z" fill="url(#paint2_linear_402_3)"/>
<path d="M188.794 111.172L188.794 101.24L117.249 40.2512H173.887C175.682 40.2595 177.42 40.8823 178.812 42.016L260.002 108.299C260.248 108.516 260.424 108.802 260.506 109.12C260.589 109.439 260.574 109.774 260.463 110.084C260.353 110.393 260.152 110.662 259.887 110.856C259.621 111.05 259.304 111.16 258.976 111.172L188.794 111.172Z" fill="url(#paint3_linear_402_3)"/>
<path d="M137.625 140.812H97.7021C96.5976 140.812 95.7021 141.708 95.7021 142.812V202.551C95.7021 203.655 96.5976 204.551 97.7021 204.551H137.625C138.73 204.551 139.625 203.655 139.625 202.551V142.812C139.625 141.708 138.73 140.812 137.625 140.812Z" fill="url(#paint4_linear_402_3)"/>
<path d="M253.419 111.172H188.827V126.16H253.419V111.172Z" fill="url(#paint5_linear_402_3)"/>
<path d="M120.713 43.2063L117.381 40.2512L117.315 40.3169L117.241 40.2512L112.554 44.4211L38.5798 108.274C38.3348 108.485 38.1598 108.766 38.0781 109.079C37.9964 109.391 38.0118 109.722 38.1222 110.025C38.2327 110.329 38.433 110.592 38.6966 110.779C38.9601 110.967 39.2744 111.069 39.5976 111.073L47.2151 111.172L117.381 50.758L188.474 111.172H188.794L200.286 111.024L120.713 43.2063Z" fill="url(#paint6_linear_402_3)"/>
<path d="M117.028 118.666C124.802 118.666 131.105 112.364 131.105 104.589C131.105 96.8142 124.802 90.5115 117.028 90.5115C109.253 90.5115 102.95 96.8142 102.95 104.589C102.95 112.364 109.253 118.666 117.028 118.666Z" fill="url(#paint7_linear_402_3)"/>
<path d="M82.2842 140.812H59.771C58.6664 140.812 57.771 141.708 57.771 142.812V178.689C57.771 179.794 58.6664 180.689 59.771 180.689H82.2842C83.3888 180.689 84.2842 179.794 84.2842 178.689V142.812C84.2842 141.708 83.3888 140.812 82.2842 140.812Z" fill="url(#paint8_linear_402_3)"/>
<path d="M90.662 123.485C90.6664 117.529 89.4968 111.631 87.2204 106.127C84.9439 100.623 81.6051 95.6222 77.3948 91.4096C73.1845 87.1971 68.1853 83.8555 62.6829 81.5761C57.1805 79.2966 51.2828 78.1239 45.3269 78.125C39.3717 78.125 33.4749 79.2985 27.9735 81.5784C22.472 83.8584 17.4738 87.2001 13.2643 91.4126C9.05492 95.625 5.71685 100.626 3.44089 106.129C1.16493 111.632 -0.00430189 117.53 1.1893e-05 123.485C-0.00106618 129.438 1.17055 135.333 3.44796 140.833C5.72537 146.333 9.06395 151.331 13.2731 155.541C17.4822 159.751 22.4793 163.09 27.9792 165.369C33.479 167.647 39.3738 168.82 45.3269 168.82H121.87L105.963 155.793C101.18 151.876 97.326 146.946 94.68 141.359C92.034 135.772 90.6617 129.667 90.662 123.485Z" fill="url(#paint9_linear_402_3)"/>
<path fill-rule="evenodd" clip-rule="evenodd" d="M31 126C31 132.627 35.9249 138 42 138C48.0751 138 53 132.627 53 126H31Z" fill="#8A84FA"/>
<path d="M27 123C29.7614 123 32 120.761 32 118C32 115.239 29.7614 113 27 113C24.2386 113 22 115.239 22 118C22 120.761 24.2386 123 27 123Z" fill="url(#paint10_linear_402_3)"/>
<path d="M57 123C59.7614 123 62 120.761 62 118C62 115.239 59.7614 113 57 113C54.2386 113 52 115.239 52 118C52 120.761 54.2386 123 57 123Z" fill="url(#paint11_linear_402_3)"/>
<path d="M173.258 154.168H150.745C149.64 154.168 148.745 155.063 148.745 156.168V178.681C148.745 179.786 149.64 180.681 150.745 180.681H173.258C174.362 180.681 175.258 179.786 175.258 178.681V156.168C175.258 155.063 174.362 154.168 173.258 154.168Z" fill="url(#paint12_linear_402_3)"/>
<path d="M230 80.5C230 116.122 214.33 145 195 145C175.67 145 160 116.122 160 80.5C160 44.8776 175.67 16 195 16C214.33 16 230 44.8776 230 80.5Z" fill="#40DFF0" fill-opacity="0.6"/>
<path d="M173.258 140.911H150.745C149.64 140.911 148.745 141.807 148.745 142.911V146.643C148.745 147.748 149.64 148.643 150.745 148.643H173.258C174.362 148.643 175.258 147.748 175.258 146.643V142.911C175.258 141.807 174.362 140.911 173.258 140.911Z" fill="url(#paint13_linear_402_3)"/>
<path d="M253.053 167.461C252.535 165.317 249.485 165.317 248.968 167.461L247.226 174.677C247.041 175.443 246.443 176.041 245.676 176.226L238.46 177.968C236.316 178.486 236.316 181.535 238.46 182.053L245.676 183.795C246.443 183.98 247.041 184.578 247.226 185.344L248.968 192.56C249.485 194.704 252.535 194.704 253.053 192.56L254.794 185.344C254.979 184.578 255.578 183.98 256.344 183.795L263.56 182.053C265.704 181.535 265.704 178.486 263.56 177.968L256.344 176.226C255.578 176.041 254.979 175.443 254.794 174.677L253.053 167.461Z" fill="url(#paint14_linear_402_3)"/>
<path d="M130.053 213.461C129.535 211.317 126.485 211.317 125.968 213.461L124.226 220.677C124.041 221.443 123.443 222.041 122.676 222.226L115.46 223.968C113.316 224.486 113.316 227.535 115.46 228.053L122.676 229.795C123.443 229.98 124.041 230.578 124.226 231.344L125.968 238.56C126.485 240.704 129.535 240.704 130.053 238.56L131.794 231.344C131.979 230.578 132.578 229.98 133.344 229.795L140.56 228.053C142.704 227.535 142.704 224.486 140.56 223.968L133.344 222.226C132.578 222.041 131.979 221.443 131.794 220.677L130.053 213.461Z" fill="url(#paint15_linear_402_3)"/>
<path d="M63.0525 32.4607C62.5349 30.3167 59.4853 30.3167 58.9678 32.4607L57.2258 39.6767C57.0409 40.4429 56.4427 41.0411 55.6765 41.2261L48.4605 42.968C46.3165 43.4856 46.3165 46.5352 48.4605 47.0528L55.6765 48.7947C56.4427 48.9796 57.0409 49.5778 57.2258 50.344L58.9678 57.56C59.4853 59.7041 62.5349 59.7041 63.0525 57.56L64.7944 50.344C64.9794 49.5778 65.5776 48.9796 66.3438 48.7947L73.5598 47.0528C75.7038 46.5352 75.7038 43.4856 73.5598 42.968L66.3438 41.2261C65.5776 41.0411 64.9794 40.4429 64.7944 39.6767L63.0525 32.4607Z" fill="url(#paint16_linear_402_3)"/>
<path d="M268.89 72.4916C269.979 71.6974 269.799 70.0222 268.567 69.4762L260.249 65.7908C259.017 65.2448 257.656 66.2375 257.799 67.5777L258.766 76.6239C258.91 77.964 260.45 78.6465 261.539 77.8524L268.89 72.4916Z" fill="url(#paint17_linear_402_3)"/>
<path d="M212.046 212.018C210.74 211.687 209.564 212.894 209.931 214.191L212.403 222.947C212.77 224.244 214.403 224.658 215.343 223.692L221.689 217.173C222.629 216.207 222.171 214.586 220.865 214.255L212.046 212.018Z" fill="url(#paint18_linear_402_3)"/>
<path d="M234.357 16.4726C229.139 11.2504 222.942 7.10769 216.122 4.28124C209.301 1.45479 201.991 0 194.608 0C187.225 0 179.915 1.45479 173.094 4.28124C166.274 7.10769 160.077 11.2504 154.859 16.4726C149.827 21.3876 145.831 27.2612 143.107 33.7465C140.383 40.2318 138.987 47.1973 139 54.2314C139 68.4976 144.508 83.1989 154.859 95.9219L186.945 137.522C187.85 138.694 189.011 139.643 190.339 140.296C191.667 140.949 193.128 141.289 194.608 141.289C196.088 141.289 197.549 140.949 198.877 140.296C200.206 139.643 201.366 138.694 202.271 137.522L234.357 95.9219C244.708 83.1989 250.208 68.4976 250.208 54.2314C250.223 47.1978 248.828 40.2326 246.105 33.7472C243.383 27.2619 239.388 21.388 234.357 16.4726Z" fill="url(#paint19_linear_402_3)"/>
<path d="M194.604 78.6924C207.479 78.6924 217.916 68.2553 217.916 55.3805C217.916 42.5057 207.479 32.0686 194.604 32.0686C181.729 32.0686 171.292 42.5057 171.292 55.3805C171.292 68.2553 181.729 78.6924 194.604 78.6924Z" fill="white"/>
<defs>
<linearGradient id="paint0_linear_402_3" x1="133.959" y1="-39.1023" x2="136.148" y2="382.618" gradientUnits="userSpaceOnUse">
<stop stop-color="white" stop-opacity="0"/>
<stop offset="1" stop-color="#9DB3FF"/>
</linearGradient>
<linearGradient id="paint1_linear_402_3" x1="106.014" y1="157.522" x2="357.994" y2="402.378" gradientUnits="userSpaceOnUse">
<stop stop-color="#5149F2"/>
<stop offset="1" stop-color="#F7F7FF"/>
</linearGradient>
<linearGradient id="paint2_linear_402_3" x1="434.179" y1="325.203" x2="142.338" y2="-69.6899" gradientUnits="userSpaceOnUse">
<stop stop-color="#5149F2"/>
<stop offset="1" stop-color="#F7F7FF"/>
</linearGradient>
<linearGradient id="paint3_linear_402_3" x1="94.6743" y1="205.721" x2="235.285" y2="5.30544" gradientUnits="userSpaceOnUse">
<stop stop-color="#5149F2"/>
<stop offset="1" stop-color="#F7F7FF"/>
</linearGradient>
<linearGradient id="paint4_linear_402_3" x1="135" y1="0" x2="135" y2="240.168" gradientUnits="userSpaceOnUse">
<stop stop-color="#5149F3"/>
<stop offset="1" stop-color="#8B85FF"/>
</linearGradient>
<linearGradient id="paint5_linear_402_3" x1="15.3552" y1="-403.341" x2="-238.166" y2="-369.682" gradientUnits="userSpaceOnUse">
<stop stop-color="#5149F2"/>
<stop offset="1" stop-color="#F7F7FF"/>
</linearGradient>
<linearGradient id="paint6_linear_402_3" x1="230.354" y1="167.186" x2="90.0448" y2="-133.471" gradientUnits="userSpaceOnUse">
<stop stop-color="#5149F2"/>
<stop offset="1" stop-color="#F7F7FF"/>
</linearGradient>
<linearGradient id="paint7_linear_402_3" x1="-124.189" y1="89.4702" x2="419.208" y2="461.551" gradientUnits="userSpaceOnUse">
<stop stop-color="#5149F2"/>
<stop offset="1" stop-color="#F7F7FF"/>
</linearGradient>
<linearGradient id="paint8_linear_402_3" x1="135" y1="0" x2="135" y2="240.168" gradientUnits="userSpaceOnUse">
<stop stop-color="#5149F3"/>
<stop offset="1" stop-color="#8B85FF"/>
</linearGradient>
<linearGradient id="paint9_linear_402_3" x1="23.5979" y1="135.655" x2="245.192" y2="221.41" gradientUnits="userSpaceOnUse">
<stop stop-color="#EBEAFF"/>
<stop offset="1" stop-color="#9893FF"/>
</linearGradient>
<linearGradient id="paint10_linear_402_3" x1="135" y1="0" x2="135" y2="240.168" gradientUnits="userSpaceOnUse">
<stop stop-color="#736CF6"/>
<stop offset="1" stop-color="#ADA9FF"/>
</linearGradient>
<linearGradient id="paint11_linear_402_3" x1="135" y1="0" x2="135" y2="240.168" gradientUnits="userSpaceOnUse">
<stop stop-color="#736CF6"/>
<stop offset="1" stop-color="#ADA9FF"/>
</linearGradient>
<linearGradient id="paint12_linear_402_3" x1="135" y1="0" x2="135" y2="240.168" gradientUnits="userSpaceOnUse">
<stop stop-color="#5149F3"/>
<stop offset="1" stop-color="#8B85FF"/>
</linearGradient>
<linearGradient id="paint13_linear_402_3" x1="135" y1="0" x2="135" y2="240.168" gradientUnits="userSpaceOnUse">
<stop stop-color="#5149F3"/>
<stop offset="1" stop-color="#8B85FF"/>
</linearGradient>
<linearGradient id="paint14_linear_402_3" x1="230.354" y1="167.186" x2="90.0448" y2="-133.471" gradientUnits="userSpaceOnUse">
<stop stop-color="#5149F2"/>
<stop offset="1" stop-color="#F7F7FF"/>
</linearGradient>
<linearGradient id="paint15_linear_402_3" x1="230.354" y1="167.186" x2="90.0448" y2="-133.471" gradientUnits="userSpaceOnUse">
<stop stop-color="#5149F2"/>
<stop offset="1" stop-color="#F7F7FF"/>
</linearGradient>
<linearGradient id="paint16_linear_402_3" x1="230.354" y1="167.186" x2="90.0448" y2="-133.471" gradientUnits="userSpaceOnUse">
<stop stop-color="#5149F2"/>
<stop offset="1" stop-color="#F7F7FF"/>
</linearGradient>
<linearGradient id="paint17_linear_402_3" x1="230.354" y1="167.186" x2="90.0448" y2="-133.471" gradientUnits="userSpaceOnUse">
<stop stop-color="#5149F2"/>
<stop offset="1" stop-color="#F7F7FF"/>
</linearGradient>
<linearGradient id="paint18_linear_402_3" x1="230.354" y1="167.186" x2="90.0448" y2="-133.471" gradientUnits="userSpaceOnUse">
<stop stop-color="#5149F2"/>
<stop offset="1" stop-color="#F7F7FF"/>
</linearGradient>
<linearGradient id="paint19_linear_402_3" x1="0.105374" y1="0.574841" x2="113.265" y2="250.028" gradientUnits="userSpaceOnUse">
<stop stop-color="#49E2F2"/>
<stop offset="1" stop-color="#31D9EB"/>
</linearGradient>
</defs>
</svg>
